# xmcd
#
# Track frame offsets: 
#        182
#        19467
#        38075
#        52787
#        66825
#        79135
#        96452
#        113670
#        125470
#        134990
#        149027
#
# Disc length: 2106 seconds
#
# Revision: 2
# Processed by: cddbd v1.5.1PL0 Copyright (c) Steve Scherf et al.
# Submitted via: ExactAudioCopy v0.95a5
#
DISCID=a508380b
DTITLE=Bobbie Gentry - Greatest Hits
DYEAR=1990
DGENRE=Country
TTITLE0=Ode To Billie Joe
TTITLE1=Fancy
TTITLE2=Okolona River Bottom Band
TTITLE3=Morning Glory
TTITLE4=Louisiana Man
TTITLE5=Slow Cookin'
TTITLE6=Steal Away
TTITLE7=All I Have To Do Is Dream
TTITLE8=Let It Be Me
TTITLE9=Mississippi Delta
TTITLE10=Penduli Pendulum
EXTD=
EXTT0=
EXTT1=
EXTT2=
EXTT3=
EXTT4=
EXTT5=
EXTT6=
EXTT7=
EXTT8=
EXTT9=
EXTT10=
PLAYORDER=
